<svg width="141" height="38" viewBox="0 0 141 38" fill="none" xmlns="http://www.w3.org/2000/svg">
<g filter="url(#filter0_dd_5559_148707)">
<g clip-path="url(#clip0_5559_148707)">
<rect x="3" y="2" width="32" height="32" rx="8" fill="white"/>
<rect x="3" y="2" width="32" height="32" rx="8" fill="url(#paint0_linear_5559_148707)"/>
<path fill-rule="evenodd" clip-rule="evenodd" d="M19 4.03885C11.2895 4.03885 5.03884 10.2895 5.03884 18C5.03884 25.7106 11.2895 31.9612 19 31.9612C26.7105 31.9612 32.9612 25.7106 32.9612 18C32.9612 10.2895 26.7105 4.03885 19 4.03885ZM4.96117 18C4.96117 10.2466 11.2466 3.96118 19 3.96118C26.7534 3.96118 33.0388 10.2466 33.0388 18C33.0388 25.7535 26.7534 32.0389 19 32.0389C11.2466 32.0389 4.96117 25.7535 4.96117 18Z" fill="#D0D5DD"/>
<path fill-rule="evenodd" clip-rule="evenodd" d="M19 14.0779C16.8338 14.0779 15.0777 15.834 15.0777 18.0002C15.0777 20.1665 16.8338 21.9226 19 21.9226C21.1663 21.9226 22.9223 20.1665 22.9223 18.0002C22.9223 15.834 21.1663 14.0779 19 14.0779ZM15 18.0002C15 15.7911 16.7909 14.0002 19 14.0002C21.2092 14.0002 23 15.7911 23 18.0002C23 20.2094 21.2092 22.0002 19 22.0002C16.7909 22.0002 15 20.2094 15 18.0002Z" fill="#D0D5DD"/>
<path fill-rule="evenodd" clip-rule="evenodd" d="M19 15.3201C17.5201 15.3201 16.3204 16.5198 16.3204 17.9997C16.3204 19.4796 17.5201 20.6793 19 20.6793C20.4799 20.6793 21.6796 19.4796 21.6796 17.9997C21.6796 16.5198 20.4799 15.3201 19 15.3201ZM16.2427 17.9997C16.2427 16.4769 17.4772 15.2424 19 15.2424C20.5228 15.2424 21.7573 16.4769 21.7573 17.9997C21.7573 19.5225 20.5228 20.757 19 20.757C17.4772 20.757 16.2427 19.5225 16.2427 17.9997Z" fill="#D0D5DD"/>
<path d="M18.9612 2H19.0388V34H18.9612V2Z" fill="#D0D5DD"/>
<path d="M35 17.9609L35 18.0386L3 18.0386L3 17.9609L35 17.9609Z" fill="#D0D5DD"/>
<path d="M29.602 2H29.6796V34H29.602V2Z" fill="#D0D5DD"/>
<path d="M13.6408 2H13.7184V34H13.6408V2Z" fill="#D0D5DD"/>
<path d="M24.2816 2H24.3592V34H24.2816V2Z" fill="#D0D5DD"/>
<path d="M8.32037 2H8.39804V34H8.32037V2Z" fill="#D0D5DD"/>
<path d="M35 28.6016L35 28.6792L3 28.6792L3 28.6016L35 28.6016Z" fill="#D0D5DD"/>
<path d="M35 12.6406L35 12.7183L3 12.7183L3 12.6406L35 12.6406Z" fill="#D0D5DD"/>
<path d="M35 23.2812L35 23.3589L3 23.3589L3 23.2812L35 23.2812Z" fill="#D0D5DD"/>
<path d="M35 7.32031L35 7.39798L3 7.39798L3 7.32031L35 7.32031Z" fill="#D0D5DD"/>
<g filter="url(#filter1_dd_5559_148707)">
<circle cx="19" cy="18" r="8" fill="url(#paint1_linear_5559_148707)"/>
</g>
<g filter="url(#filter2_b_5559_148707)">
<path d="M3 18H35V21.2C35 25.6804 35 27.9206 34.1281 29.6319C33.3611 31.1372 32.1372 32.3611 30.6319 33.1281C28.9206 34 26.6804 34 22.2 34H15.8C11.3196 34 9.07937 34 7.36808 33.1281C5.86278 32.3611 4.63893 31.1372 3.87195 29.6319C3 27.9206 3 25.6804 3 21.2V18Z" fill="white" fill-opacity="0.2"/>
</g>
</g>
<rect x="3.15" y="2.15" width="31.7" height="31.7" rx="7.85" stroke="#D0D5DD" stroke-width="0.3"/>
</g>
<path d="M55.7244 9.04545H58.8864V20.4489C58.8864 21.6989 58.5909 22.7983 58 23.7472C57.4148 24.696 56.5909 25.4375 55.5284 25.9716C54.4659 26.5 53.2244 26.7642 51.804 26.7642C50.3778 26.7642 49.1335 26.5 48.071 25.9716C47.0085 25.4375 46.1847 24.696 45.5994 23.7472C45.0142 22.7983 44.7216 21.6989 44.7216 20.4489V9.04545H47.8835V20.1847C47.8835 20.9119 48.0426 21.5597 48.3608 22.1278C48.6847 22.696 49.1392 23.142 49.7244 23.4659C50.3097 23.7841 51.0028 23.9432 51.804 23.9432C52.6051 23.9432 53.2983 23.7841 53.8835 23.4659C54.4744 23.142 54.929 22.696 55.2472 22.1278C55.5653 21.5597 55.7244 20.9119 55.7244 20.1847V9.04545ZM71.8134 16.8693L69.0009 17.1761C68.9213 16.892 68.7821 16.625 68.5833 16.375C68.3901 16.125 68.1287 15.9233 67.7992 15.7699C67.4696 15.6165 67.0662 15.5398 66.5889 15.5398C65.9469 15.5398 65.4071 15.679 64.9696 15.9574C64.5378 16.2358 64.3247 16.5966 64.3304 17.0398C64.3247 17.4205 64.4639 17.7301 64.748 17.9688C65.0378 18.2074 65.5151 18.4034 66.1799 18.5568L68.4128 19.0341C69.6514 19.3011 70.5719 19.7244 71.1742 20.304C71.7821 20.8835 72.089 21.642 72.0946 22.5795C72.089 23.4034 71.8475 24.1307 71.3702 24.7614C70.8986 25.3864 70.2424 25.875 69.4014 26.2273C68.5605 26.5795 67.5946 26.7557 66.5037 26.7557C64.9014 26.7557 63.6117 26.4205 62.6344 25.75C61.6571 25.0739 61.0747 24.1335 60.8872 22.929L63.8958 22.6392C64.0321 23.2301 64.3219 23.6761 64.7651 23.9773C65.2083 24.2784 65.785 24.429 66.4952 24.429C67.2282 24.429 67.8162 24.2784 68.2594 23.9773C68.7083 23.6761 68.9327 23.304 68.9327 22.8608C68.9327 22.4858 68.7878 22.1761 68.498 21.9318C68.2139 21.6875 67.7708 21.5 67.1685 21.3693L64.9355 20.9006C63.6799 20.6392 62.7509 20.1989 62.1486 19.5795C61.5463 18.9545 61.248 18.1648 61.2537 17.2102C61.248 16.4034 61.4668 15.7045 61.91 15.1136C62.3588 14.517 62.981 14.0568 63.7764 13.733C64.5776 13.4034 65.5009 13.2386 66.5463 13.2386C68.0804 13.2386 69.2878 13.5653 70.1685 14.2188C71.0549 14.8722 71.6032 15.7557 71.8134 16.8693ZM79.7141 26.7557C78.4016 26.7557 77.2681 26.483 76.3136 25.9375C75.3647 25.3864 74.6346 24.608 74.1232 23.6023C73.6118 22.5909 73.3562 21.4006 73.3562 20.0312C73.3562 18.6847 73.6118 17.5028 74.1232 16.4858C74.6403 15.4631 75.3618 14.6676 76.288 14.0994C77.2141 13.5256 78.3022 13.2386 79.5522 13.2386C80.359 13.2386 81.1204 13.3693 81.8363 13.6307C82.5579 13.8864 83.1942 14.2841 83.7454 14.8239C84.3022 15.3636 84.7397 16.0511 85.0579 16.8864C85.3761 17.7159 85.5351 18.7045 85.5351 19.8523V20.7983H74.805V18.7188H82.5778C82.5721 18.1278 82.4442 17.6023 82.1942 17.142C81.9442 16.6761 81.5948 16.3097 81.1459 16.0426C80.7028 15.7756 80.1857 15.642 79.5948 15.642C78.9641 15.642 78.4101 15.7955 77.9329 16.1023C77.4556 16.4034 77.0834 16.8011 76.8164 17.2955C76.555 17.7841 76.4215 18.321 76.4158 18.9062V20.7216C76.4158 21.483 76.555 22.1364 76.8334 22.6818C77.1118 23.2216 77.5011 23.6364 78.0011 23.9261C78.5011 24.2102 79.0863 24.3523 79.7567 24.3523C80.2056 24.3523 80.6118 24.2898 80.9755 24.1648C81.3391 24.0341 81.6545 23.8438 81.9215 23.5938C82.1886 23.3438 82.3903 23.0341 82.5266 22.6648L85.4073 22.9886C85.2255 23.75 84.8789 24.4148 84.3675 24.983C83.8618 25.5455 83.2141 25.983 82.4243 26.2955C81.6346 26.6023 80.7312 26.7557 79.7141 26.7557ZM87.4252 26.5V13.4091H90.4167V15.5909H90.5531C90.7917 14.8352 91.2008 14.2528 91.7803 13.8438C92.3656 13.429 93.0332 13.2216 93.7832 13.2216C93.9536 13.2216 94.144 13.2301 94.3542 13.2472C94.5701 13.2585 94.7491 13.2784 94.8911 13.3068V16.1449C94.7605 16.0994 94.5531 16.0597 94.269 16.0256C93.9906 15.9858 93.7207 15.9659 93.4593 15.9659C92.8968 15.9659 92.3911 16.0881 91.9423 16.3324C91.4991 16.571 91.1497 16.9034 90.894 17.3295C90.6383 17.7557 90.5105 18.2472 90.5105 18.804V26.5H87.4252ZM96.3572 26.5V9.04545H99.5191V16.4347H107.607V9.04545H110.778V26.5H107.607V19.0852H99.5191V26.5H96.3572ZM121.704 20.9943V13.4091H124.789V26.5H121.798V24.1733H121.661C121.366 24.9062 120.88 25.5057 120.204 25.9716C119.534 26.4375 118.707 26.6705 117.724 26.6705C116.866 26.6705 116.107 26.4801 115.448 26.0994C114.795 25.7131 114.284 25.1534 113.914 24.4205C113.545 23.6818 113.36 22.7898 113.36 21.7443V13.4091H116.445V21.267C116.445 22.0966 116.673 22.7557 117.127 23.2443C117.582 23.733 118.178 23.9773 118.917 23.9773C119.372 23.9773 119.812 23.8665 120.238 23.6449C120.664 23.4233 121.014 23.0938 121.286 22.6562C121.565 22.2131 121.704 21.6591 121.704 20.9943ZM127.378 26.5V9.04545H130.463V15.5739H130.591C130.75 15.2557 130.975 14.9176 131.265 14.5597C131.554 14.196 131.946 13.8864 132.441 13.6307C132.935 13.3693 133.566 13.2386 134.333 13.2386C135.344 13.2386 136.256 13.4972 137.068 14.0142C137.887 14.5256 138.534 15.2841 139.012 16.2898C139.495 17.2898 139.736 18.517 139.736 19.9716C139.736 21.4091 139.5 22.6307 139.029 23.6364C138.557 24.642 137.915 25.4091 137.103 25.9375C136.29 26.4659 135.37 26.7301 134.341 26.7301C133.591 26.7301 132.969 26.6051 132.475 26.3551C131.98 26.1051 131.583 25.804 131.282 25.4517C130.986 25.0937 130.756 24.7557 130.591 24.4375H130.412V26.5H127.378ZM130.404 19.9545C130.404 20.8011 130.523 21.5426 130.762 22.179C131.006 22.8153 131.355 23.3125 131.81 23.6705C132.27 24.0227 132.827 24.1989 133.48 24.1989C134.162 24.1989 134.733 24.017 135.193 23.6534C135.654 23.2841 136 22.7812 136.233 22.1449C136.472 21.5028 136.591 20.7727 136.591 19.9545C136.591 19.142 136.475 18.4205 136.242 17.7898C136.009 17.1591 135.662 16.6648 135.202 16.3068C134.742 15.9489 134.168 15.7699 133.48 15.7699C132.821 15.7699 132.262 15.9432 131.801 16.2898C131.341 16.6364 130.992 17.1222 130.753 17.7472C130.52 18.3722 130.404 19.108 130.404 19.9545Z" fill="black"/>
<defs>
<filter id="filter0_dd_5559_148707" x="0" y="0" width="38" height="38" filterUnits="userSpaceOnUse" color-interpolation-filters="sRGB">
<feFlood flood-opacity="0" result="BackgroundImageFix"/>
<feColorMatrix in="SourceAlpha" type="matrix" values="0 0 0 0 0 0 0 0 0 0 0 0 0 0 0 0 0 0 127 0" result="hardAlpha"/>
<feOffset dy="1"/>
<feGaussianBlur stdDeviation="1"/>
<feColorMatrix type="matrix" values="0 0 0 0 0.0627451 0 0 0 0 0.0941176 0 0 0 0 0.156863 0 0 0 0.06 0"/>
<feBlend mode="normal" in2="BackgroundImageFix" result="effect1_dropShadow_5559_148707"/>
<feColorMatrix in="SourceAlpha" type="matrix" values="0 0 0 0 0 0 0 0 0 0 0 0 0 0 0 0 0 0 127 0" result="hardAlpha"/>
<feOffset dy="1"/>
<feGaussianBlur stdDeviation="1.5"/>
<feColorMatrix type="matrix" values="0 0 0 0 0.0627451 0 0 0 0 0.0941176 0 0 0 0 0.156863 0 0 0 0.1 0"/>
<feBlend mode="normal" in2="effect1_dropShadow_5559_148707" result="effect2_dropShadow_5559_148707"/>
<feBlend mode="normal" in="SourceGraphic" in2="effect2_dropShadow_5559_148707" result="shape"/>
</filter>
<filter id="filter1_dd_5559_148707" x="8" y="8" width="22" height="22" filterUnits="userSpaceOnUse" color-interpolation-filters="sRGB">
<feFlood flood-opacity="0" result="BackgroundImageFix"/>
<feColorMatrix in="SourceAlpha" type="matrix" values="0 0 0 0 0 0 0 0 0 0 0 0 0 0 0 0 0 0 127 0" result="hardAlpha"/>
<feOffset dy="1"/>
<feGaussianBlur stdDeviation="1"/>
<feColorMatrix type="matrix" values="0 0 0 0 0.0627451 0 0 0 0 0.0941176 0 0 0 0 0.156863 0 0 0 0.06 0"/>
<feBlend mode="normal" in2="BackgroundImageFix" result="effect1_dropShadow_5559_148707"/>
<feColorMatrix in="SourceAlpha" type="matrix" values="0 0 0 0 0 0 0 0 0 0 0 0 0 0 0 0 0 0 127 0" result="hardAlpha"/>
<feOffset dy="1"/>
<feGaussianBlur stdDeviation="1.5"/>
<feColorMatrix type="matrix" values="0 0 0 0 0.0627451 0 0 0 0 0.0941176 0 0 0 0 0.156863 0 0 0 0.1 0"/>
<feBlend mode="normal" in2="effect1_dropShadow_5559_148707" result="effect2_dropShadow_5559_148707"/>
<feBlend mode="normal" in="SourceGraphic" in2="effect2_dropShadow_5559_148707" result="shape"/>
</filter>
<filter id="filter2_b_5559_148707" x="-2" y="13" width="42" height="26" filterUnits="userSpaceOnUse" color-interpolation-filters="sRGB">
<feFlood flood-opacity="0" result="BackgroundImageFix"/>
<feGaussianBlur in="BackgroundImageFix" stdDeviation="2.5"/>
<feComposite in2="SourceAlpha" operator="in" result="effect1_backgroundBlur_5559_148707"/>
<feBlend mode="normal" in="SourceGraphic" in2="effect1_backgroundBlur_5559_148707" result="shape"/>
</filter>
<linearGradient id="paint0_linear_5559_148707" x1="19" y1="2" x2="19" y2="34" gradientUnits="userSpaceOnUse">
<stop stop-color="white"/>
<stop offset="1" stop-color="#D0D5DD"/>
</linearGradient>
<linearGradient id="paint1_linear_5559_148707" x1="15" y1="26" x2="23" y2="10" gradientUnits="userSpaceOnUse">
<stop stop-color="#53389E"/>
<stop offset="1" stop-color="#6941C6"/>
</linearGradient>
<clipPath id="clip0_5559_148707">
<rect x="3" y="2" width="32" height="32" rx="8" fill="white"/>
</clipPath>
</defs>
</svg>
